<svg preserveAspectRatio="none" overflow="visible" style="display: block;" width="34" height="34" viewBox="0 0 34 34" fill="none" xmlns="http://www.w3.org/2000/svg">
<g id="image 65 [Vectorized]" clip-path="url(#clip0_0_46)">
<path id="Vector" d="M15.374 0H18.5943C18.7358 0.103854 20.2572 0.309657 20.5585 0.37665C21.8851 0.6716 23.3816 1.06296 24.5411 1.77925C24.3988 1.99912 24.0615 2.71881 23.9372 2.98159C22.8605 5.25755 22.307 7.05716 19.8335 8.22461C18.3486 8.9255 16.5837 9.0519 15.0289 8.52072C12.598 7.69024 11.564 6.07029 10.6107 3.83493C10.3352 3.18901 9.92774 2.3909 9.61606 1.73215C10.5774 1.09943 12.4298 0.620842 13.5596 0.357226C13.8931 0.279429 15.1654 0.13681 15.374 0Z" fill="white"/>
<path id="Vector_2" d="M26.5379 2.91566C26.9889 3.23065 27.3217 3.43443 27.7657 3.79535C30.3885 5.92981 32.3156 8.79753 33.3011 12.0323C33.4545 12.5652 33.5833 13.1048 33.6872 13.6494C33.752 14.0031 33.8659 14.8673 34 15.1805V15.7676C33.3824 15.9285 32.4183 15.911 31.7709 15.9913C29.6006 16.2605 27.8325 16.274 25.9597 14.963C24.573 13.9947 23.6255 12.5173 23.3238 10.8532C23.0931 9.52166 23.2719 7.99259 23.9033 6.78977C24.2085 6.20825 24.7067 5.50661 25.0901 4.96473L26.5379 2.91566Z" fill="white"/>
<path id="Vector_3" d="M26.4845 30.984C25.7146 29.8777 24.9188 28.7961 24.1831 27.6717C23.2461 26.2398 22.978 24.4014 23.364 22.7407C23.7499 21.0811 24.7993 19.6654 26.235 18.7569C28.1617 17.5375 29.8524 17.7649 31.9966 17.9609C32.5009 18.007 33.5544 18.0613 34 18.1615V18.6226C33.9143 18.7672 33.7075 20.086 33.66 20.346C32.9001 24.4941 30.0852 28.756 26.4845 30.984Z" fill="white"/>
<path id="Vector_4" d="M4.06263 17.7446C4.06526 17.7443 4.06785 17.744 4.07044 17.7438C7.51895 17.5432 10.5391 20.1445 10.828 23.5804C11.0316 26.0032 10.1338 27.3644 8.78468 29.207C8.35557 29.7931 7.97306 30.4116 7.51167 30.9586L7.18771 30.7239C3.28635 28.1474 0.200492 22.7685 0.163028 18.0638C1.37261 18.0194 2.81407 17.8238 4.06263 17.7446Z" fill="white"/>
<path id="Vector_5" d="M16.5607 25.0492C17.9612 24.8875 19.3732 25.3631 20.5551 26.0769C22.7997 27.4325 23.277 30.0402 24.4873 32.1431C22.5326 33.2157 19.7827 33.8048 17.5728 33.8356C14.5199 33.8536 12.3297 33.495 9.56111 32.126C9.74757 31.6442 10.1044 31.0215 10.3273 30.5361C10.8361 29.4277 11.3466 28.1116 12.1678 27.1923C13.3209 25.9014 14.8526 25.1795 16.5607 25.0492Z" fill="white"/>
<path id="Vector_6" d="M7.51984 2.95336C7.56108 2.94366 7.58642 2.9551 7.62739 2.96621C7.97463 3.36112 8.47198 4.13804 8.80693 4.59983C10.1058 6.39051 11.0123 7.67892 10.8748 10.0258C10.7792 11.748 9.99288 13.3587 8.69394 14.4936C7.20687 15.8065 5.59134 16.1672 3.66054 16.0432C2.50363 15.975 1.31515 15.8203 0.164305 15.7643C0.163034 14.5946 0.482222 13.0235 0.819788 11.9153C1.68055 9.08932 3.38111 6.45077 5.56179 4.46223C6.1365 3.93816 6.83463 3.32064 7.51984 2.95336Z" fill="white"/>
</g>
<defs>
<clipPath id="clip0_0_46">
<rect width="34" height="34" fill="white"/>
</clipPath>
</defs>
</svg>
